<?xml version="1.0" standalone="no"?>
<!DOCTYPE svg PUBLIC "-//W3C//DTD SVG 20010904//EN"
 "http://www.w3.org/TR/2001/REC-SVG-20010904/DTD/svg10.dtd">
<svg version="1.0" xmlns="http://www.w3.org/2000/svg"
 width="300.000000pt" height="300.000000pt" viewBox="0 0 300.000000 300.000000"
 preserveAspectRatio="xMidYMid meet">
<metadata>
Created by potrace 1.10, written by Peter Selinger 2001-2011
</metadata>
<g transform="translate(0.000000,300.000000) scale(0.100000,-0.100000)"
fill="#000000" stroke="none">
<path d="M1355 2820 c8 -25 -13 -27 -31 -2 -13 16 -13 16 -13 -3 1 -11 5 -31
9 -45 8 -24 8 -24 9 -2 1 28 31 30 31 1 0 -11 4 -18 8 -15 11 6 2 86 -10 86
-5 0 -6 -9 -3 -20z"/>
<path d="M1492 2803 c-2 -39 0 -43 21 -42 16 1 17 3 5 6 -11 3 -18 17 -21 41
l-4 37 -1 -42z"/>
<path d="M1580 2825 c-7 -9 -10 -25 -6 -40 6 -22 11 -26 39 -23 25 2 33 8 35
26 7 44 -41 70 -68 37z m50 -10 c16 -19 6 -45 -19 -45 -23 0 -35 28 -20 46 15
18 24 18 39 -1z"/>
<path d="M1700 2823 c0 -4 5 -25 11 -47 l11 -38 24 35 c31 47 31 61 -1 22
l-24 -30 -1 27 c0 15 -4 30 -10 33 -5 3 -10 3 -10 -2z"/>
<path d="M1220 2810 c0 -5 5 -10 10 -10 6 0 10 -8 10 -17 0 -10 5 -25 11 -33
8 -11 9 -6 4 22 -4 25 -2 38 7 41 7 3 1 6 -14 6 -16 1 -28 -3 -28 -9z"/>
<path d="M1165 2770 c4 -19 12 -39 17 -45 7 -7 8 2 3 25 -4 19 -12 40 -17 45
-7 7 -8 -2 -3 -25z"/>
<path d="M1805 2764 c-7 -41 -8 -39 23 -48 13 -5 22 -3 22 3 0 6 -9 11 -21 11
-12 0 -19 5 -16 13 2 6 15 11 28 9 l24 -2 -24 13 c-26 15 -14 31 15 20 12 -4
15 -3 10 5 -4 7 -18 12 -30 12 -19 0 -25 -7 -31 -36z"/>
<path d="M1105 2763 c6 -27 6 -27 -14 -9 -21 19 -21 19 -21 -9 l0 -27 -21 23
c-22 26 -22 20 0 -23 8 -16 18 -28 23 -28 4 0 8 12 8 28 l1 27 18 -22 c11 -13
21 -23 23 -23 2 0 2 20 0 45 -2 25 -9 45 -14 45 -6 0 -7 -11 -3 -27z"/>
<path d="M890 2700 c-12 -8 -12 -13 3 -44 19 -40 25 -43 53 -21 18 15 18 15
-8 9 -32 -7 -36 2 -10 23 16 14 16 14 -1 9 -30 -10 -42 6 -16 20 15 8 18 13 9
13 -8 1 -22 -3 -30 -9z"/>
<path d="M2090 2660 c-11 -22 -16 -40 -11 -40 5 0 12 7 15 15 4 13 10 14 26 5
11 -6 20 -7 20 -1 0 5 -7 11 -15 15 -23 8 -18 28 5 21 26 -8 26 1 0 15 -17 9
-22 5 -40 -30z"/>
<path d="M1380 2664 c-520 -66 -918 -429 -1026 -934 -25 -117 -25 -343 0 -460
100 -465 452 -818 916 -916 118 -25 344 -25 460 0 610 131 1014 702 926 1306
-73 498 -434 880 -928 986 -73 15 -282 26 -348 18z m321 -29 c397 -69 741
-354 879 -728 50 -136 62 -199 67 -362 6 -177 -6 -271 -54 -412 -121 -364
-429 -652 -800 -750 -131 -34 -365 -43 -495 -19 -446 84 -794 404 -914 841
-26 93 -28 113 -28 295 0 182 2 202 28 295 117 425 455 745 881 835 113 23
318 26 436 5z"/>
<path d="M1427 2570 c-57 -45 -89 -186 -53 -235 10 -14 11 -26 4 -48 -7 -19
-7 -32 0 -39 7 -7 14 2 22 26 6 19 20 38 30 41 10 3 32 21 49 40 52 60 67 162
30 209 -25 31 -47 33 -82 6z m67 -32 c29 -40 11 -124 -34 -170 -33 -32 -42
-34 -64 -12 -33 33 -13 138 35 183 29 27 44 27 63 -1z"/>
<path d="M1605 2503 c-17 -36 -54 -165 -55 -189 0 -7 9 -14 19 -17 15 -4 24 8
47 67 33 85 44 176 21 176 -8 0 -23 -17 -32 -37z m14 -65 c-15 -51 -35 -79
-25 -33 9 36 29 85 34 80 2 -1 -2 -23 -9 -47z"/>
<path d="M1028 2313 c-31 -16 -36 -34 -13 -53 35 -29 93 21 65 55 -15 17 -16
17 -52 -2z"/>
<path d="M1501 2213 c-49 -55 -82 -140 -82 -210 0 -92 33 -118 84 -65 55 58
90 187 73 275 -10 52 -30 52 -75 0z m69 -63 c0 -19 -6 -59 -14 -87 -14 -54
-54 -128 -63 -119 -3 3 -14 1 -25 -5 -17 -9 -18 -7 -12 18 4 15 21 75 40 133
18 57 32 106 30 108 -4 3 -50 -124 -65 -178 -8 -32 -9 -32 -10 -8 -1 15 10 58
24 95 30 83 25 96 -6 16 -15 -38 -23 -78 -22 -115 0 -32 -4 -58 -10 -58 -6 0
-8 26 -5 68 5 69 49 179 68 167 5 -3 11 4 15 15 4 11 11 18 16 15 5 -4 9 0 9
7 1 30 29 -40 30 -72z"/>
<path d="M1544 2143 c-1 -51 -39 -182 -50 -171 -2 2 8 40 21 83 14 44 25 87
24 95 0 8 -16 -32 -34 -90 -19 -57 -32 -106 -29 -109 2 -2 4 2 4 10 0 11 2 11
9 1 20 -32 80 165 65 212 -8 22 -9 17 -10 -31z"/>
<path d="M1315 2138 c-29 -75 -45 -178 -28 -178 27 0 56 62 83 179 10 44 10
55 -1 62 -23 14 -25 12 -54 -63z m15 -73 c-14 -43 -28 -46 -22 -5 2 17 8 30
13 30 5 0 9 8 10 18 0 10 3 12 6 5 2 -7 -1 -29 -7 -48z"/>
<path d="M1043 2174 c-6 -16 12 -34 32 -34 6 1 2 5 -7 11 -24 13 -23 29 2 29
13 0 31 -19 55 -55 34 -53 50 -70 39 -40 -4 9 3 16 20 21 29 7 34 19 11 28 -9
3 -15 0 -15 -8 0 -17 -27 -29 -35 -16 -4 6 -3 15 0 20 3 6 -1 10 -10 10 -10 0
-15 7 -13 18 2 9 12 16 22 15 13 -1 15 2 7 10 -7 7 -14 7 -25 -2 -10 -8 -16
-9 -21 -1 -10 16 -55 12 -62 -6z"/>
<path d="M1180 2176 c0 -18 30 -30 43 -17 5 5 6 14 3 20 -10 16 -46 13 -46 -3z"/>
<path d="M1177 2077 c-4 -10 -12 -17 -19 -16 -31 4 -41 -3 -18 -12 17 -7 26
-7 28 1 5 14 22 2 18 -13 -1 -7 -1 -8 2 -4 2 4 11 2 20 -5 16 -12 16 -11 1 7
-10 11 -19 29 -21 40 -3 18 -4 19 -11 2z"/>
<path d="M1828 2064 c-11 -23 -10 -29 11 -46 26 -20 40 -20 54 3 7 11 4 24 -8
42 -22 34 -42 34 -57 1z"/>
<path d="M1085 2060 c-15 -16 -15 -22 -5 -35 14 -17 38 -19 60 -5 11 7 6 8
-17 4 -28 -6 -33 -4 -33 13 0 10 5 24 12 31 7 7 10 12 7 12 -3 0 -14 -9 -24
-20z"/>
<path d="M1642 2043 c4 -22 43 -25 43 -3 0 8 -11 16 -23 18 -19 3 -23 0 -20
-15z"/>
<path d="M1694 2008 c-4 -7 -3 -8 4 -4 7 4 16 5 22 1 11 -7 2 -35 -12 -35 -5
0 -6 6 -3 13 4 6 0 4 -8 -6 -12 -15 -20 -16 -35 -8 -19 10 -32 6 -32 -10 0 -4
10 -5 23 -2 12 3 19 3 16 -1 -4 -4 -17 -8 -30 -10 -13 -1 -32 -6 -41 -9 -10
-4 -25 -9 -35 -12 -14 -5 -13 -9 9 -33 14 -15 28 -34 31 -42 4 -12 6 -11 6 3
1 10 -11 30 -25 44 l-26 26 27 -7 c16 -4 24 -3 21 3 -7 11 55 23 80 15 13 -4
15 -3 6 3 -9 7 -2 14 23 26 41 19 61 21 70 7 11 -18 -6 -32 -23 -19 -14 11
-14 10 0 -6 14 -15 20 -17 30 -7 10 10 10 17 0 33 -11 18 -11 23 5 35 13 11 9
10 -16 -2 -31 -15 -35 -15 -43 0 -10 19 -34 21 -44 4z"/>
<path d="M1146 1989 c-14 -11 -30 -18 -35 -14 -13 8 -22 -10 -15 -29 9 -22 34
-20 34 3 0 24 22 42 63 51 29 7 30 8 6 9 -15 1 -38 -8 -53 -20z"/>
<path d="M1730 1907 c0 -20 -30 -23 -49 -4 -11 10 -13 9 -9 -3 6 -21 57 -25
64 -5 4 9 4 19 0 22 -3 4 -6 -1 -6 -10z"/>
<path d="M1595 1820 c-4 -7 -3 -16 2 -21 12 -12 45 0 40 15 -5 15 -34 19 -42
6z"/>
<path d="M610 1771 c0 -6 5 -13 10 -16 6 -3 10 -33 10 -65 0 -32 -4 -62 -10
-65 -5 -3 -10 -10 -10 -16 0 -12 47 -12 55 1 3 6 1 10 -5 10 -20 0 -7 64 14
68 17 4 18 -1 14 -42 -5 -44 -4 -46 19 -46 19 0 24 4 19 16 -3 9 -6 33 -6 54
0 42 -19 57 -51 40 -18 -10 -19 -8 -13 30 6 38 5 40 -20 40 -14 0 -26 -4 -26
-9z"/>
<path d="M1290 1760 c0 -11 7 -20 15 -20 8 0 15 9 15 20 0 11 -7 20 -15 20 -8
0 -15 -9 -15 -20z"/>
<path d="M1411 1766 c-12 -14 -5 -26 16 -26 15 0 18 26 4 34 -5 3 -14 0 -20
-8z"/>
<path d="M1618 1703 c4 -97 6 -103 34 -103 39 0 68 27 68 64 0 44 -24 65 -52
47 -20 -12 -21 -11 -14 28 6 38 5 41 -17 41 -22 0 -22 -3 -19 -77z m70 -45
c-2 -22 -9 -34 -20 -36 -15 -3 -18 4 -18 32 0 30 4 36 21 36 17 0 20 -5 17
-32z"/>
<path d="M1955 1770 c-3 -5 -1 -10 5 -10 9 0 11 -24 8 -80 -3 -77 -2 -80 19
-80 26 0 26 0 13 34 -5 15 -6 26 0 26 5 0 11 -9 15 -19 8 -27 32 -44 50 -37
12 4 10 10 -11 31 l-26 26 21 23 c27 29 27 36 -5 36 -19 0 -25 -4 -21 -14 3
-8 -1 -20 -10 -27 -13 -12 -15 -7 -12 44 4 53 2 57 -18 57 -12 0 -25 -4 -28
-10z"/>
<path d="M458 1749 c-31 -17 -22 -55 18 -78 36 -22 41 -43 10 -49 -11 -2 -19
4 -23 17 -8 31 -25 26 -21 -6 2 -23 8 -29 35 -31 22 -2 38 3 53 18 26 26 23
39 -21 68 -41 28 -47 40 -23 49 10 4 22 0 29 -10 17 -24 25 -21 25 8 0 22 -4
25 -32 25 -18 0 -41 -5 -50 -11z"/>
<path d="M2450 1730 c0 -32 14 -40 24 -14 10 27 7 44 -9 44 -10 0 -15 -10 -15
-30z"/>
<path d="M815 1712 c-5 -4 -10 -31 -10 -59 0 -51 1 -53 27 -53 15 0 30 5 33
10 3 6 -1 10 -9 10 -11 0 -16 9 -16 28 0 35 9 45 26 31 9 -7 14 -4 19 11 9 28
2 34 -24 20 -14 -7 -21 -7 -21 0 0 12 -11 13 -25 2z"/>
<path d="M970 1700 c-41 -41 -9 -109 45 -96 33 8 32 24 -2 28 -42 5 -41 28 1
28 38 0 43 8 26 41 -14 25 -45 24 -70 -1z"/>
<path d="M1130 1700 c-11 -11 -20 -29 -20 -40 0 -21 33 -60 51 -60 6 0 20 6
32 12 21 12 21 13 -12 18 -48 7 -53 30 -7 30 28 0 36 4 36 18 0 42 -47 55 -80
22z"/>
<path d="M1286 1711 c-14 -5 -16 -10 -8 -15 15 -9 16 -100 2 -127 -13 -24 2
-25 23 -1 12 13 17 37 17 85 0 69 -1 71 -34 58z"/>
<path d="M1410 1710 c-17 -4 -21 -8 -12 -14 15 -9 16 -68 0 -84 -9 -9 -5 -12
19 -12 l30 0 -4 53 c-6 67 -4 64 -33 57z"/>
<path d="M1807 1709 c-24 -14 -13 -27 19 -21 20 4 25 1 22 -9 -3 -8 -15 -15
-27 -17 -29 -5 -38 -29 -18 -49 12 -13 19 -14 30 -5 10 9 16 9 25 0 9 -9 16
-8 29 5 16 16 16 17 -1 17 -14 0 -16 5 -11 30 11 50 -24 75 -68 49z"/>
<path d="M2151 1694 c-26 -33 -26 -49 -1 -74 24 -24 53 -26 70 -5 11 13 8 15
-18 15 -17 0 -32 6 -36 15 -4 12 3 15 29 15 27 0 35 4 35 18 0 46 -48 55 -79
16z"/>
<path d="M2315 1712 c-5 -4 -10 -31 -10 -59 0 -51 1 -53 27 -53 15 0 30 5 33
10 3 6 -1 10 -9 10 -11 0 -16 9 -16 28 0 35 9 45 26 31 9 -7 14 -4 19 11 9 28
2 34 -24 20 -14 -7 -21 -7 -21 0 0 12 -11 13 -25 2z"/>
<path d="M2562 1708 c-19 -19 -14 -44 13 -56 26 -12 34 -32 12 -32 -7 0 -18 5
-24 11 -7 7 -12 6 -17 -6 -7 -19 15 -29 48 -21 38 9 42 37 10 63 -16 12 -25
25 -21 29 3 4 13 1 22 -6 13 -10 15 -9 15 9 0 15 -6 21 -23 21 -13 0 -28 -5
-35 -12z"/>
<path d="M1218 1354 c3 -34 2 -45 -7 -40 -6 4 -11 16 -11 27 0 13 -7 19 -22
18 -13 0 -17 -3 -10 -6 6 -2 12 -11 12 -19 0 -8 -6 -11 -16 -7 -12 4 -15 2
-12 -8 3 -8 21 -14 47 -16 36 -1 42 1 37 15 -5 15 -5 15 6 1 7 -9 30 -16 51
-17 38 -1 51 13 20 21 -17 4 -17 5 0 6 9 0 17 8 17 17 0 26 -44 13 -48 -14 -3
-19 -6 -21 -18 -11 -11 9 -12 15 -3 25 8 10 8 14 0 14 -6 0 -11 -4 -11 -10 0
-5 -4 -10 -8 -10 -5 0 -7 14 -4 30 3 22 0 30 -11 30 -11 0 -13 -10 -9 -46z"/>
<path d="M1535 1350 c0 -35 4 -50 13 -50 9 0 11 7 7 19 -3 11 -1 22 5 26 6 4
10 -4 10 -19 0 -15 6 -26 13 -26 9 0 12 10 9 30 -2 17 -10 30 -18 30 -8 0 -14
9 -14 20 0 11 -6 20 -13 20 -8 0 -12 -16 -12 -50z"/>
<path d="M1625 1350 c0 -33 4 -50 13 -50 8 0 12 17 12 50 0 33 -4 50 -13 50
-8 0 -12 -16 -12 -50z"/>
<path d="M1078 1345 c-3 -46 -3 -46 27 -43 28 3 30 6 30 43 0 36 -3 40 -26 43
-25 3 -27 0 -31 -43z"/>
<path d="M1498 1365 c-8 -8 4 -65 13 -65 5 0 7 11 3 25 -4 16 -2 25 6 25 6 0
8 5 5 10 -7 11 -19 13 -27 5z"/>
<path d="M1795 1354 c-9 -9 -14 -23 -11 -31 3 -8 6 -17 6 -19 0 -2 9 -4 20 -4
25 0 27 20 3 21 -13 0 -12 3 6 10 19 8 21 12 11 24 -15 19 -15 19 -35 -1z"/>
<path d="M1366 1333 c9 -36 12 -39 27 -24 9 11 9 14 0 18 -7 3 -13 11 -13 19
0 8 -5 14 -10 14 -6 0 -8 -11 -4 -27z"/>
<path d="M1403 1330 c14 -37 25 -38 33 -5 3 14 11 25 16 25 6 0 8 -11 6 -25
-4 -19 -1 -25 12 -25 13 0 16 7 12 30 -3 23 -9 30 -27 30 -17 0 -25 -7 -28
-22 l-4 -23 -2 23 c0 12 -7 22 -15 22 -12 0 -12 -5 -3 -30z"/>
<path d="M1664 1345 c-8 -21 2 -45 19 -45 21 0 38 25 31 44 -8 20 -43 21 -50
1z"/>
<path d="M1731 1330 c6 -16 15 -30 19 -30 4 0 13 14 19 30 6 18 6 30 0 30 -5
0 -9 -7 -9 -16 0 -8 -5 -12 -10 -9 -6 4 -8 11 -5 16 4 5 -1 9 -9 9 -12 0 -13
-5 -5 -30z"/>
<path d="M803 1070 c0 -41 2 -58 4 -37 2 20 2 54 0 75 -2 20 -4 3 -4 -38z"/>
<path d="M1340 1070 c0 -40 4 -70 10 -70 6 0 10 30 10 70 0 40 -4 70 -10 70
-6 0 -10 -30 -10 -70z"/>
<path d="M1881 1068 c1 -85 6 -80 11 10 3 34 1 62 -4 62 -4 0 -8 -33 -7 -72z"/>
<path d="M640 1080 c0 -27 5 -50 10 -50 6 0 10 5 10 11 0 8 5 7 15 -1 9 -7 18
-11 20 -8 3 3 -1 11 -10 18 -14 12 -14 15 1 31 15 17 15 19 1 19 -8 0 -18 -6
-20 -12 -3 -7 -6 -1 -6 15 -2 49 -21 28 -21 -23z"/>
<path d="M1188 1080 c2 -27 8 -50 13 -50 4 0 6 8 2 18 -6 15 -4 15 15 -2 23
-20 31 -9 10 12 -10 10 -10 15 2 22 8 5 11 12 7 16 -4 4 -14 -1 -23 -12 -15
-18 -15 -17 -10 14 4 21 2 32 -7 32 -8 0 -11 -15 -9 -50z"/>
<path d="M2020 1080 c0 -27 5 -50 10 -50 6 0 10 11 10 25 0 14 5 25 11 25 7 0
9 -10 7 -25 -3 -16 -1 -25 7 -25 9 0 10 10 5 33 -4 17 -12 31 -18 30 -7 -2
-12 6 -12 17 0 11 -4 20 -10 20 -5 0 -10 -22 -10 -50z"/>
<path d="M2270 1080 c0 -27 4 -50 8 -50 4 0 9 23 10 50 1 28 -2 50 -8 50 -5 0
-10 -22 -10 -50z"/>
<path d="M512 1108 c-16 -16 -15 -53 3 -68 18 -15 47 -10 53 10 3 12 2 12 -8
3 -18 -17 -40 -5 -40 22 0 30 16 41 35 25 12 -10 15 -9 15 4 0 19 -40 22 -58
4z"/>
<path d="M872 1108 c-15 -15 -15 -51 0 -66 15 -15 45 -16 53 -1 10 16 -3 23
-18 10 -19 -15 -41 11 -32 39 7 20 35 29 35 9 0 -5 5 -7 10 -4 6 3 10 10 10
16 0 13 -44 11 -58 -3z"/>
<path d="M1408 1075 c-3 -40 -1 -45 18 -45 30 0 42 20 37 58 -4 25 -10 32 -28
32 -20 0 -23 -6 -27 -45z"/>
<path d="M1952 1108 c-16 -16 -15 -53 3 -68 18 -15 47 -10 53 10 5 13 3 13
-12 0 -16 -13 -20 -12 -32 4 -9 13 -10 24 -3 37 11 22 20 24 37 7 9 -9 12 -8
12 5 0 20 -40 23 -58 5z"/>
<path d="M585 1090 c-3 -5 2 -10 11 -10 16 0 16 -1 -2 -14 -21 -16 -14 -29 16
-31 16 -1 18 3 13 24 -10 42 -24 54 -38 31z"/>
<path d="M712 1088 c-16 -16 -15 -33 3 -48 12 -10 19 -10 27 -2 9 9 8 12 -5
12 -9 0 -17 5 -17 10 0 6 7 10 16 10 9 0 14 5 12 12 -6 17 -22 20 -36 6z"/>
<path d="M942 1068 c2 -26 8 -33 24 -33 23 0 24 1 24 40 0 14 -5 25 -10 25 -6
0 -8 -11 -4 -25 5 -19 2 -25 -11 -25 -13 0 -16 6 -11 25 4 15 2 25 -4 25 -7 0
-10 -14 -8 -32z"/>
<path d="M1010 1049 c0 -29 4 -49 11 -49 6 0 9 7 6 14 -4 9 2 17 14 21 30 10
22 60 -8 61 -21 1 -23 -3 -23 -47z"/>
<path d="M1082 1088 c-7 -7 -12 -17 -12 -24 0 -18 28 -37 41 -28 9 5 6 10 -9
15 -14 5 -20 14 -16 24 5 12 9 13 20 4 11 -9 14 -8 14 5 0 19 -21 21 -38 4z"/>
<path d="M1135 1090 c-3 -5 2 -10 12 -10 17 -1 17 -1 1 -11 -26 -15 -23 -40 5
-35 21 3 24 17 12 54 -5 15 -21 16 -30 2z"/>
<path d="M1274 1091 c5 -7 1 -9 -8 -5 -12 5 -16 -1 -16 -20 0 -29 25 -45 43
-27 8 8 5 11 -11 11 -12 0 -22 5 -22 10 0 6 9 10 21 10 22 0 22 21 -1 28 -7 3
-10 0 -6 -7z"/>
<path d="M1484 1064 c0 -19 5 -34 12 -34 7 0 9 10 6 25 -2 15 0 25 7 25 19 0
12 16 -7 17 -14 1 -18 -6 -18 -33z"/>
<path d="M1534 1086 c-10 -26 0 -51 21 -51 16 0 20 7 20 30 0 33 -30 49 -41
21z m32 -32 c-5 -13 -10 -14 -18 -6 -6 6 -8 18 -4 28 5 13 10 14 18 6 6 -6 8
-18 4 -28z"/>
<path d="M1596 1073 c10 -40 15 -47 25 -32 8 12 11 11 19 -1 7 -12 12 -9 21
17 12 37 34 34 25 -3 -5 -17 -2 -24 7 -24 10 0 13 8 9 25 -2 15 0 25 7 25 6 0
11 -11 11 -25 0 -14 5 -25 11 -25 6 0 9 14 7 32 -3 31 -6 33 -45 35 -31 1 -41
-2 -37 -12 3 -7 1 -16 -5 -20 -7 -3 -11 2 -11 14 0 28 -18 27 -23 -1 l-4 -23
-2 23 c0 12 -6 22 -11 22 -6 0 -8 -11 -4 -27z"/>
<path d="M1754 1065 c0 -19 5 -35 11 -35 7 0 9 14 7 35 -2 19 -7 35 -11 35 -4
0 -7 -16 -7 -35z"/>
<path d="M1789 1079 c-14 -27 13 -61 33 -41 9 9 8 12 -5 12 -9 0 -17 5 -17 10
0 6 9 10 20 10 13 0 18 5 14 15 -9 22 -31 18 -45 -6z"/>
<path d="M2094 1086 c-10 -26 0 -51 21 -51 16 0 20 7 20 30 0 33 -30 49 -41
21z m32 -32 c-5 -13 -10 -14 -18 -6 -6 6 -8 18 -4 28 5 13 10 14 18 6 6 -6 8
-18 4 -28z"/>
<path d="M2162 1088 c-17 -17 -15 -48 3 -55 24 -9 31 5 10 21 -10 7 -15 18
-11 24 8 14 36 4 36 -13 0 -7 7 -18 15 -25 19 -16 45 3 45 32 0 23 -25 34 -44
19 -10 -8 -16 -9 -21 -1 -8 13 -18 13 -33 -2z"/>
<path d="M2305 1090 c-3 -5 2 -10 11 -10 16 0 16 -1 -2 -14 -21 -16 -15 -28
16 -33 17 -2 19 1 14 25 -11 43 -25 55 -39 32z"/>
<path d="M2360 1071 c0 -30 15 -49 28 -36 4 4 1 10 -5 12 -15 5 -17 33 -3 33
6 0 10 5 10 10 0 6 -7 10 -15 10 -10 0 -15 -10 -15 -29z"/>
<path d="M2412 1088 c-17 -17 -15 -47 4 -55 8 -3 20 -1 27 6 8 8 5 11 -11 11
-12 0 -22 5 -22 10 0 6 9 10 21 10 11 0 19 5 17 12 -6 17 -22 20 -36 6z"/>
<path d="M2464 1089 c-3 -6 -1 -16 5 -22 14 -14 15 -30 1 -22 -5 3 -10 1 -10
-4 0 -14 27 -14 35 0 4 5 -1 19 -11 30 -16 18 -16 19 -1 13 10 -3 17 -1 17 5
0 14 -27 14 -36 0z"/>
<path d="M1155 895 c0 -37 4 -55 12 -55 7 0 10 7 7 18 -5 15 -3 14 10 -2 9
-11 19 -17 22 -13 4 4 1 13 -6 22 -10 12 -10 18 0 30 7 8 9 15 5 15 -4 0 -14
-8 -21 -17 -12 -16 -13 -14 -14 20 0 20 -3 37 -7 37 -5 0 -8 -25 -8 -55z"/>
<path d="M1580 934 c0 -9 -10 -24 -22 -34 -19 -15 -21 -22 -12 -37 14 -23 68
-29 60 -7 -3 9 -6 33 -6 55 0 21 -4 39 -10 39 -5 0 -10 -7 -10 -16z"/>
<path d="M948 929 c-22 -12 -24 -62 -3 -79 18 -15 47 -10 53 10 4 12 2 13 -9
3 -18 -18 -27 -16 -39 6 -15 29 -2 54 26 48 16 -3 24 0 24 9 0 16 -27 18 -52
3z"/>
<path d="M1654 923 c3 -10 2 -33 -3 -51 -8 -26 -7 -32 5 -32 10 0 13 7 8 25
-3 14 -2 25 4 25 5 0 13 -12 17 -27 l8 -28 12 29 c12 29 30 21 19 -8 -4 -10
-1 -16 7 -16 10 0 14 15 14 50 0 60 -18 67 -36 13 l-12 -38 -12 34 c-12 36
-42 60 -31 24z"/>
<path d="M1020 895 c-17 -21 -2 -50 26 -50 14 0 19 7 19 30 0 34 -24 45 -45
20z m35 -18 c0 -26 -20 -25 -23 2 -3 16 1 22 10 19 7 -3 13 -12 13 -21z"/>
<path d="M1092 898 c-16 -16 -15 -33 2 -47 22 -18 48 -2 44 28 -3 28 -27 38
-46 19z m33 -21 c0 -26 -20 -25 -23 2 -3 16 1 22 10 19 7 -3 13 -12 13 -21z"/>
<path d="M1267 903 c-4 -3 -7 -17 -7 -30 0 -27 26 -41 43 -24 8 8 5 11 -11 11
-12 0 -22 5 -22 10 0 6 9 10 20 10 11 0 20 7 20 15 0 15 -31 21 -43 8z"/>
<path d="M1327 903 c-2 -5 -4 -20 -5 -35 -2 -31 18 -38 38 -13 10 12 9 16 -4
21 -9 3 -16 10 -16 16 0 5 5 6 10 3 6 -3 10 -1 10 4 0 12 -27 15 -33 4z"/>
<path d="M1404 898 c-5 -8 -2 -9 9 -5 9 3 19 2 22 -2 2 -5 -5 -11 -16 -14 -28
-8 -19 -32 12 -32 24 1 27 13 14 53 -5 15 -31 16 -41 0z"/>
<path d="M1470 876 c0 -23 5 -36 13 -36 9 0 12 10 9 30 -3 18 0 30 7 30 6 0
11 -13 11 -30 0 -16 5 -30 11 -30 6 0 9 14 7 33 -2 27 -8 33 -30 35 -26 3 -28
1 -28 -32z"/>
<path d="M1767 904 c-13 -13 -7 -55 8 -60 21 -9 47 15 43 40 -3 21 -37 34 -51
20z m35 -16 c6 -16 -1 -38 -12 -38 -11 0 -21 30 -14 41 8 13 21 11 26 -3z"/>
<path d="M1834 874 c0 -20 4 -34 11 -34 8 0 10 10 7 25 -2 15 0 25 7 25 18 0
12 16 -6 17 -14 1 -18 -7 -19 -33z"/>
<path d="M1886 894 c-10 -26 -7 -42 10 -48 27 -10 40 6 13 17 l-24 10 23 4
c12 3 22 11 22 19 0 19 -36 18 -44 -2z"/>
<path d="M785 2641 c-9 -16 27 -72 44 -69 24 5 37 35 25 56 -13 20 -59 28 -69
13z m55 -16 c10 -12 10 -18 -1 -31 -12 -14 -14 -14 -26 2 -27 37 -2 64 27 29z"/>
<path d="M2172 2614 c-23 -35 -23 -36 -3 -29 17 5 21 2 22 -17 1 -20 2 -20 6
-3 3 11 13 25 22 32 12 9 14 16 5 29 -17 28 -28 26 -52 -12z"/>
<path d="M714 2545 c6 -25 14 -45 19 -45 4 0 7 8 5 17 -2 11 6 19 21 23 24 6
24 6 -13 28 -20 12 -38 22 -40 22 -1 0 2 -20 8 -45z"/>
<path d="M2268 2573 c-8 -10 -18 -24 -22 -31 -8 -14 10 -42 27 -42 5 0 2 9 -7
19 -10 11 -13 21 -7 25 5 4 12 2 16 -4 3 -5 12 -10 18 -10 7 0 4 7 -6 14 -21
16 -7 29 20 19 16 -6 16 -5 4 10 -17 21 -24 21 -43 0z"/>
<path d="M633 2516 c4 -9 10 -23 13 -32 6 -15 4 -14 -25 0 l-32 17 21 -41 c12
-23 24 -40 27 -37 2 3 -1 15 -7 27 -11 20 -10 21 9 11 28 -16 33 -14 26 9 -7
22 5 26 23 8 7 -7 12 -8 12 -4 0 9 -23 29 -54 47 -16 9 -18 9 -13 -5z"/>
<path d="M2344 2509 c-3 -6 -1 -16 5 -22 6 -6 11 -17 11 -24 0 -21 -20 -15
-30 10 -10 22 -10 22 -7 -3 1 -15 9 -26 21 -28 24 -5 37 17 23 39 -16 25 0 37
18 13 8 -10 15 -14 15 -8 0 26 -42 45 -56 23z"/>
<path d="M2417 2432 c-29 -30 -37 -53 -12 -32 11 9 19 10 26 3 8 -8 7 -13 0
-17 -6 -4 -11 -12 -11 -18 0 -7 14 1 30 17 30 29 43 58 15 35 -20 -16 -40 -3
-24 16 22 27 3 24 -24 -4z"/>
<path d="M2524 2297 c-24 -21 -26 -27 -15 -41 7 -9 19 -16 25 -16 17 0 48 39
44 57 -5 26 -24 26 -54 0z"/>
<path d="M397 2273 c-4 -3 -7 -15 -7 -25 0 -21 29 -25 48 -6 6 6 15 8 19 4 5
-4 -1 -14 -11 -22 -11 -7 -17 -17 -13 -20 10 -11 37 16 37 37 0 22 -29 26 -48
7 -6 -6 -15 -8 -19 -4 -5 4 1 14 11 22 15 11 16 14 5 14 -9 0 -19 -3 -22 -7z"/>
<path d="M2570 2211 l-25 -7 24 -6 c18 -5 22 -12 18 -27 -8 -31 5 -25 31 14
l22 35 -22 -1 c-13 -1 -34 -4 -48 -8z"/>
<path d="M342 2188 c-31 -31 5 -63 38 -33 16 15 20 15 20 4 0 -8 -5 -20 -12
-27 -7 -7 -8 -12 -2 -12 14 0 34 22 34 37 0 22 -29 27 -49 9 -13 -12 -21 -14
-26 -7 -3 6 1 14 9 17 17 6 22 24 8 24 -4 0 -13 -5 -20 -12z"/>
<path d="M2642 2128 c-35 -22 -42 -31 -16 -21 14 5 15 3 5 -15 -7 -13 -8 -22
-2 -22 5 0 13 9 16 21 5 16 13 20 31 16 13 -2 24 0 24 4 0 5 -10 9 -22 9 -18
0 -20 2 -8 10 8 5 12 11 9 14 -2 3 -19 -4 -37 -16z"/>
<path d="M290 2090 c-14 -26 -8 -34 31 -50 33 -14 49 -4 48 30 0 9 -5 6 -13
-9 -14 -26 -30 -14 -20 16 5 17 5 17 -9 1 -20 -25 -30 -22 -23 7 8 30 1 33
-14 5z"/>
<path d="M2678 2047 c-16 -6 -28 -14 -28 -19 0 -12 11 -9 50 12 37 20 23 25
-22 7z"/>
<path d="M2705 1989 c-33 -16 -35 -18 -11 -14 l29 6 -17 -26 c-10 -15 -16 -28
-14 -30 2 -1 21 6 43 16 33 16 35 18 11 14 l-29 -6 17 26 c10 15 16 28 14 30
-2 1 -21 -6 -43 -16z"/>
<path d="M275 1971 c44 -20 55 -19 55 7 0 13 -2 14 -8 4 -7 -10 -15 -10 -36
-2 -45 17 -54 10 -11 -9z"/>
<path d="M2730 1880 c-17 -17 -18 -24 -10 -41 15 -27 34 -33 59 -19 25 13 27
42 5 64 -20 21 -30 20 -54 -4z m53 -13 c3 -8 1 -20 -4 -28 -8 -12 -10 -12 -19
1 -6 10 -10 11 -10 3 0 -7 -4 -13 -10 -13 -11 0 -14 33 -3 43 11 12 41 8 46
-6z"/>
<path d="M202 1848 c-27 -27 -6 -68 35 -68 29 0 48 33 33 60 -14 27 -30 25
-30 -2 0 -19 2 -20 10 -8 8 12 10 11 10 -8 0 -27 -24 -39 -45 -22 -14 11 -14
15 0 36 16 25 8 33 -13 12z"/>
<path d="M177 1723 c-11 -11 -8 -48 5 -61 30 -30 75 0 64 43 -8 31 -36 34 -35
3 0 -22 1 -22 9 -3 7 19 8 19 15 2 5 -12 2 -24 -9 -35 -15 -15 -17 -15 -33 1
-15 14 -16 21 -5 37 11 19 3 28 -11 13z"/>
<path d="M156 1592 c-10 -30 -7 -32 43 -39 40 -5 41 -5 41 23 -1 25 -2 26 -11
12 -5 -10 -14 -18 -19 -18 -5 0 -11 8 -13 18 -4 16 -5 16 -6 0 -2 -26 -19 -22
-23 5 l-4 22 -8 -23z"/>
<path d="M2776 1554 c-9 -8 -16 -18 -16 -20 0 -14 22 -44 32 -44 9 0 9 3 0 12
-27 27 -3 67 28 48 8 -5 10 -17 6 -36 -6 -24 -5 -26 8 -15 19 16 21 42 4 59
-17 17 -44 15 -62 -4z"/>
<path d="M2765 1440 c3 -5 13 -10 21 -10 8 0 14 -7 14 -16 0 -10 -6 -14 -15
-11 -8 4 -17 2 -20 -3 -4 -6 14 -9 42 -9 26 1 38 4 26 6 -29 5 -30 33 -2 33
11 0 17 5 14 10 -3 6 -24 10 -46 10 -24 0 -38 -4 -34 -10z"/>
<path d="M204 1424 c5 -13 0 -15 -27 -10 -17 3 -26 3 -20 0 8 -3 11 -15 7 -30
-5 -18 -2 -24 11 -24 12 0 16 6 12 20 -6 23 -6 23 27 10 17 -6 26 -6 26 0 0 6
-8 10 -17 10 -17 1 -17 1 0 11 23 14 22 29 -4 29 -15 0 -19 -4 -15 -16z"/>
<path d="M2762 1328 c-30 -30 0 -75 42 -64 27 7 38 35 24 60 -11 19 -49 21
-66 4z m56 -24 c4 -26 -26 -40 -45 -21 -8 7 -11 21 -7 31 9 24 48 17 52 -10z"/>
<path d="M182 1311 c-22 -14 -10 -46 19 -49 29 -3 54 20 45 43 -6 16 -43 20
-64 6z m55 -17 c5 -15 -31 -24 -48 -13 -12 8 -11 11 1 19 18 12 42 9 47 -6z"/>
<path d="M202 1211 c-20 -12 -10 -45 13 -49 28 -4 60 21 52 42 -7 17 -43 21
-65 7z m51 -16 c1 -5 -10 -11 -25 -13 -16 -2 -28 1 -28 7 0 20 49 26 53 6z"/>
<path d="M2742 1208 c-14 -14 -17 -58 -3 -58 4 0 6 11 4 24 -6 29 24 44 46 22
13 -14 13 -18 -5 -37 -13 -15 -14 -20 -5 -17 8 2 19 12 25 21 22 35 -33 74
-62 45z"/>
<path d="M238 1118 c-16 -5 -28 -14 -28 -19 0 -12 1 -12 44 6 56 24 42 35 -16
13z"/>
<path d="M2702 1088 c-30 -30 0 -75 42 -64 29 7 40 31 26 57 -12 21 -50 25
-68 7z m56 -24 c4 -27 -26 -40 -46 -20 -13 13 -13 18 -2 31 18 21 44 15 48
-11z"/>
<path d="M2657 983 c-4 -3 -7 -13 -7 -22 1 -14 2 -13 11 1 9 17 12 17 40 2 17
-8 33 -13 36 -10 5 5 -50 36 -65 36 -5 0 -12 -3 -15 -7z"/>
<path d="M2634 915 c7 -24 -8 -50 -23 -41 -6 4 -11 2 -11 -3 0 -6 13 -11 29
-11 16 0 36 -3 45 -6 24 -9 19 7 -15 46 -21 24 -29 29 -25 15z"/>
<path d="M380 883 c0 -6 5 -15 11 -19 8 -4 8 -9 0 -17 -8 -8 -15 -5 -26 9 -8
10 -15 14 -15 7 0 -6 5 -15 10 -18 6 -4 8 -11 4 -16 -4 -6 -14 -3 -25 7 -21
19 -25 8 -6 -18 12 -15 15 -15 45 4 18 11 32 23 32 27 0 13 -29 46 -30 34z"/>
<path d="M2570 813 c0 -5 11 -16 25 -23 14 -7 25 -20 25 -29 0 -11 3 -10 15 5
18 24 19 35 1 28 -8 -3 -26 2 -40 11 -14 10 -26 13 -26 8z"/>
<path d="M426 785 c-5 -21 -11 -24 -31 -19 -15 4 -25 2 -25 -5 0 -6 10 -11 23
-11 18 0 19 -2 7 -10 -26 -17 1 -11 31 7 16 10 29 21 29 26 0 5 -7 4 -16 -4
-13 -11 -14 -9 -9 14 4 15 5 27 2 27 -3 0 -8 -11 -11 -25z"/>
<path d="M2515 740 c-19 -21 -7 -28 13 -8 6 6 15 9 19 5 4 -4 1 -13 -5 -19 -7
-7 -12 -17 -12 -22 0 -6 7 -2 15 8 11 14 18 17 26 9 8 -8 8 -13 0 -17 -6 -4
-11 -13 -11 -19 1 -13 30 21 30 34 0 4 -13 17 -29 28 -28 20 -28 20 -46 1z"/>
<path d="M465 704 c-11 -21 -21 -42 -23 -46 -4 -8 74 15 85 26 4 4 -1 6 -12 4
-15 -2 -21 4 -25 26 l-5 29 -20 -39z"/>
<path d="M560 622 c21 -17 22 -22 11 -36 -20 -24 -38 -20 -50 12 l-10 27 2
-30 c2 -26 6 -30 31 -30 53 0 62 64 10 74 -16 3 -15 0 6 -17z"/>
<path d="M2302 518 c-7 -7 -12 -21 -11 -32 0 -20 0 -20 9 0 12 31 30 39 47 21
20 -20 10 -47 -19 -47 -16 0 -19 -3 -11 -11 8 -8 17 -8 32 0 36 20 22 81 -19
81 -9 0 -21 -5 -28 -12z"/>
<path d="M694 505 c14 -11 17 -18 9 -26 -8 -8 -13 -8 -17 0 -4 6 -12 11 -19
11 -6 0 -3 -6 8 -13 13 -10 15 -16 6 -21 -6 -4 -18 -2 -26 4 -8 7 -15 8 -15 4
0 -5 9 -15 19 -21 17 -11 23 -8 45 19 23 29 23 33 8 45 -9 7 -21 12 -27 12 -5
0 -1 -6 9 -14z"/>
<path d="M2206 444 c-9 -8 -16 -22 -16 -29 0 -17 27 -45 44 -45 7 0 21 9 31
20 17 18 17 21 1 45 -19 29 -38 32 -60 9z m52 -31 c3 -19 -1 -23 -21 -23 -26
0 -38 15 -29 38 8 22 47 10 50 -15z"/>
<path d="M738 425 c-9 -21 -8 -28 8 -46 l19 -21 22 29 c27 33 29 49 7 57 -29
11 -44 6 -56 -19z m56 7 c2 -4 -4 -19 -14 -32 -17 -22 -19 -23 -25 -7 -4 9 -5
24 -1 32 6 16 31 20 40 7z"/>
<path d="M845 378 c-11 -58 -3 -65 36 -29 28 27 30 31 11 26 -17 -5 -24 -1
-31 17 -8 21 -9 20 -16 -14z"/>
<path d="M2088 365 c-14 -30 3 -55 37 -55 12 0 28 7 35 15 20 24 -3 65 -35 65
-17 0 -29 -8 -37 -25z m57 -15 c0 -16 -6 -26 -18 -28 -19 -4 -32 20 -23 44 9
25 41 13 41 -16z"/>
<path d="M936 333 c-4 -16 -10 -37 -13 -48 -5 -18 -3 -18 21 4 l26 24 0 -33 0
-34 25 34 c30 41 33 66 4 30 l-21 -25 6 28 c7 31 0 34 -24 12 -16 -14 -17 -14
-13 10 7 34 -3 32 -11 -2z"/>
<path d="M2024 293 c-1 -27 1 -40 3 -30 3 11 11 16 19 13 8 -3 14 -3 14 0 0 7
-30 64 -33 64 -2 0 -3 -21 -3 -47z"/>
<path d="M1060 300 c0 -6 7 -10 15 -10 8 0 15 -6 15 -14 0 -9 -8 -13 -22 -9
-20 4 -21 3 -5 -7 26 -17 20 -31 -10 -24 -22 4 -25 3 -13 -5 27 -20 48 -12 55
19 9 42 9 43 -14 52 -12 4 -21 3 -21 -2z"/>
<path d="M1850 280 c-12 -8 -9 -10 13 -10 15 0 27 -4 27 -10 0 -5 -7 -10 -15
-10 -8 0 -15 -5 -15 -11 0 -5 5 -7 10 -4 6 3 15 3 21 -1 8 -4 3 -12 -12 -20
-15 -8 -18 -13 -9 -13 32 -1 42 15 33 50 -10 36 -28 46 -53 29z"/>
<path d="M1140 233 l0 -48 25 30 24 30 1 -35 1 -35 20 38 c11 22 18 41 15 44
-3 3 -10 -5 -15 -18 -9 -22 -10 -22 -10 -3 -1 30 -12 36 -27 16 -12 -16 -13
-15 -14 6 0 12 -4 22 -10 22 -5 0 -10 -21 -10 -47z"/>
<path d="M1752 248 c-15 -15 3 -38 29 -38 11 0 19 -5 19 -11 0 -6 -9 -9 -20
-6 -11 3 -20 1 -20 -5 0 -5 10 -8 22 -6 31 4 36 35 7 40 -12 2 -25 9 -27 17
-3 10 1 12 17 8 11 -3 21 -1 21 4 0 13 -34 11 -48 -3z"/>
<path d="M1276 231 c-21 -23 -14 -57 13 -66 45 -14 76 32 45 66 -9 10 -22 19
-29 19 -7 0 -20 -9 -29 -19z m54 -25 c0 -25 -15 -37 -37 -28 -14 4 -18 34 -6
45 3 4 15 7 25 7 12 0 18 -7 18 -24z"/>
<path d="M1391 188 c0 -37 2 -40 10 -20 10 26 36 25 31 -2 -2 -9 2 -16 8 -16
5 0 9 19 9 43 -1 23 -3 34 -6 25 -5 -22 -33 -24 -33 -3 0 8 -4 15 -10 15 -5 0
-10 -19 -9 -42z"/>
</g>
</svg>
